<svg width="50" height="50" version="1.1" xmlns="http://www.w3.org/2000/svg" desc="Created with imagetracer.js version 1.2.6" ><path fill="rgb(255,255,255)" stroke="rgb(255,255,255)" stroke-width="1" opacity="0.7215686274509804" d="M 11.5 3 L 38.5 3 L 45 7.5 L 47 11.5 L 47 38.5 L 42.5 45 L 38.5 47 L 11.5 47 L 5 42.5 L 3 38.5 L 3 11.5 L 7.5 5 L 11.5 3 Z M 17 5 L 11 7 Q 6 10 5 17 L 5 34 L 7 40 Q 10 44 17 45 L 34 45 L 40 43 Q 44 40 45 34 L 45 17 L 43 11 Q 40 6 34 5 L 17 5 Z " /><path fill="rgb(255,255,255)" stroke="rgb(255,255,255)" stroke-width="1" opacity="0.7215686274509804" d="M 35 11 Q 41 9 39 15 Q 33 17 35 11 Z " /><path fill="rgb(255,255,255)" stroke="rgb(255,255,255)" stroke-width="1" opacity="0.7215686274509804" d="M 20.5 14 Q 32 12 35 18.5 Q 37.5 22 36 29.5 L 31.5 35 Q 28 37.5 20.5 36 L 15 31.5 Q 12.5 28 14 20.5 L 18.5 15 L 20.5 14 Z M 22 17 Q 15 19 17 29 Q 19 35 29 33 Q 35 31 33 22 Q 31 15 22 17 Z " /><path fill="rgb(0,0,0)" stroke="rgb(0,0,0)" stroke-width="1" opacity="0" d="M 0 0 L 50 0 L 50 50 L 0 50 L 0 0 Z M 12 3 L 8 5 L 3 12 L 3 39 L 5 43 L 12 47 L 39 47 L 43 45 L 47 39 L 47 12 L 45 8 L 39 3 L 12 3 Z " /><path fill="rgb(0,0,0)" stroke="rgb(0,0,0)" stroke-width="1" opacity="0" d="M 16.5 5 L 33.5 5 Q 40.1 5.9 43 10.5 L 45 16.5 L 45 33.5 Q 44.1 40.1 39.5 43 L 33.5 45 L 16.5 45 Q 9.9 44.1 7 39.5 L 5 33.5 L 5 16.5 Q 5.9 9.9 10.5 7 L 16.5 5 Z M 35 11 Q 33 17 39 15 Q 41 9 35 11 Z M 21 14 L 19 15 L 14 21 Q 13 28 15 32 L 21 36 Q 28 38 32 35 L 36 30 Q 38 22 35 19 Q 32 12 21 14 Z " /><path fill="rgb(0,0,0)" stroke="rgb(0,0,0)" stroke-width="1" opacity="0" d="M 21.5 17 Q 31.3 15.3 33 21.5 Q 34.8 31.3 28.5 33 Q 18.8 34.8 17 28.5 Q 15.3 18.8 21.5 17 Z " /></svg>